<svg xmlns="http://www.w3.org/2000/svg" viewBox="0 0 1200 200"><defs><style>.cls-1{fill:#fff;}.cls-2{fill:#272727;}.cls-3{fill:#ff5b01;}</style></defs><g id="Layer_2" data-name="Layer 2"><g id="Layer_1-2" data-name="Layer 1"><rect class="cls-1" width="1200" height="200" rx="25.77"/><path class="cls-2" d="M525.19,91.85a8,8,0,0,0-4-.95,7.33,7.33,0,0,0-3.61.86,3.92,3.92,0,0,0-.64.42.58.58,0,0,1-.94-.46V84.26a.59.59,0,0,0-.58-.59h-4.29a.59.59,0,0,0-.58.59v26.33a.59.59,0,0,0,.58.59h4.29a.59.59,0,0,0,.58-.59v-11a4.16,4.16,0,0,1,.45-2,3.38,3.38,0,0,1,1.29-1.31,3.84,3.84,0,0,1,1.89-.47,3.78,3.78,0,0,1,1.91.47,3.27,3.27,0,0,1,1.27,1.31,4.16,4.16,0,0,1,.46,2v11a.59.59,0,0,0,.58.59h4.28a.6.6,0,0,0,.59-.59V98.42a8,8,0,0,0-.95-3.94A6.78,6.78,0,0,0,525.19,91.85Z"/><path class="cls-2" d="M546.57,92.25a11.28,11.28,0,0,0-10.7,0A10.28,10.28,0,0,0,532,95.92a10.58,10.58,0,0,0,0,10.66,10.33,10.33,0,0,0,3.85,3.69,11.35,11.35,0,0,0,10.7,0,10.43,10.43,0,0,0,3.83-3.69,10.65,10.65,0,0,0,0-10.66A10.37,10.37,0,0,0,546.57,92.25Zm-1,11.84a4.67,4.67,0,0,1-4.34,2.62,4.9,4.9,0,0,1-2.62-.69,4.7,4.7,0,0,1-1.76-1.93,6,6,0,0,1-.64-2.83,5.92,5.92,0,0,1,.64-2.82,4.78,4.78,0,0,1,4.38-2.63,4.72,4.72,0,0,1,2.59.71,5,5,0,0,1,1.75,1.92,6,6,0,0,1,.63,2.82A6.14,6.14,0,0,1,545.57,104.09Z"/><path class="cls-2" d="M569.93,92.28a9.76,9.76,0,0,0-5.13-1.38,8.8,8.8,0,0,0-3.86.82,6.74,6.74,0,0,0-1.25.77.58.58,0,0,1-1-.45v-.12a.58.58,0,0,0-.59-.58h-3.92a.58.58,0,0,0-.58.58v25.94a.58.58,0,0,0,.58.58h4.29a.58.58,0,0,0,.58-.58v-7a.58.58,0,0,1,.89-.5,8.22,8.22,0,0,0,1,.54,9.48,9.48,0,0,0,3.76.74,9.82,9.82,0,0,0,5.19-1.38,10.07,10.07,0,0,0,3.62-3.74,10.53,10.53,0,0,0,1.32-5.23,10.29,10.29,0,0,0-5-9Zm-1.31,11.81A4.77,4.77,0,0,1,566.8,106a5.15,5.15,0,0,1-2.69.69,4.89,4.89,0,0,1-2.59-.69,4.62,4.62,0,0,1-1.78-1.93,6.6,6.6,0,0,1,0-5.67,4.65,4.65,0,0,1,1.78-1.92,4.89,4.89,0,0,1,2.59-.69,5.07,5.07,0,0,1,2.69.71,4.94,4.94,0,0,1,1.82,1.92,5.93,5.93,0,0,1,.65,2.82A6,6,0,0,1,568.62,104.09Z"/><path class="cls-2" d="M597.39,83.67h-4.28a.59.59,0,0,0-.59.59v7.51a.58.58,0,0,1-.9.49,7.06,7.06,0,0,0-.93-.54,8.87,8.87,0,0,0-3.87-.82,9.7,9.7,0,0,0-5.12,1.38,10.7,10.7,0,0,0-3.65,14.21,10,10,0,0,0,3.61,3.74,9.88,9.88,0,0,0,5.2,1.38,9.6,9.6,0,0,0,3.77-.74,6.84,6.84,0,0,0,1.33-.75.58.58,0,0,1,.93.47.59.59,0,0,0,.58.59h3.92a.59.59,0,0,0,.58-.59V84.26A.59.59,0,0,0,597.39,83.67Zm-5.5,20.42a4.77,4.77,0,0,1-1.76,1.93,5,5,0,0,1-2.62.69,5.21,5.21,0,0,1-2.67-.69,4.67,4.67,0,0,1-1.83-1.93,5.91,5.91,0,0,1-.66-2.83,5.82,5.82,0,0,1,.66-2.82,4.83,4.83,0,0,1,1.83-1.92,5.13,5.13,0,0,1,2.67-.71,5,5,0,0,1,2.62.69,4.81,4.81,0,0,1,1.76,1.92,6.69,6.69,0,0,1,0,5.67Z"/><path class="cls-2" d="M617.37,91.34h-4.28a.59.59,0,0,0-.59.58v11a4.19,4.19,0,0,1-.45,2,3.32,3.32,0,0,1-1.27,1.33,4.08,4.08,0,0,1-3.8,0,3.37,3.37,0,0,1-1.29-1.33,4.19,4.19,0,0,1-.45-2v-11a.58.58,0,0,0-.58-.58h-4.29a.58.58,0,0,0-.58.58v11.45a10.1,10.1,0,0,0,.87,4.32,6.66,6.66,0,0,0,2.56,2.89,7.69,7.69,0,0,0,4.09,1,7.33,7.33,0,0,0,3.61-.85,4.66,4.66,0,0,0,1-.71.59.59,0,0,1,1,.43v.11a.59.59,0,0,0,.58.59h3.92a.59.59,0,0,0,.58-.59V91.92A.58.58,0,0,0,617.37,91.34Z"/><path class="cls-2" d="M639.07,105.33l-3.67-1.61a.59.59,0,0,0-.77.29,4.6,4.6,0,0,1-1.49,1.83,4.78,4.78,0,0,1-7.1-1.75,6.6,6.6,0,0,1,0-5.67,4.76,4.76,0,0,1,1.74-1.92,5,5,0,0,1,5.34.18,4.49,4.49,0,0,1,1.51,1.83.59.59,0,0,0,.76.3l3.68-1.59a.58.58,0,0,0,.31-.75,7.75,7.75,0,0,0-1.74-2.68,9.36,9.36,0,0,0-3.23-2.12,11.35,11.35,0,0,0-9.48.58,9.85,9.85,0,0,0-3.78,3.69,10.41,10.41,0,0,0,3.8,14.31,10.55,10.55,0,0,0,5.36,1.36,10.75,10.75,0,0,0,4.14-.78,9.55,9.55,0,0,0,3.23-2.16,7.86,7.86,0,0,0,1.7-2.59A.58.58,0,0,0,639.07,105.33Z"/><path class="cls-2" d="M653.16,99.7a.57.57,0,0,1,.07-.69l6-6.7a.58.58,0,0,0-.43-1h-5.16a.6.6,0,0,0-.42.18l-5.54,5.89a.58.58,0,0,1-1-.4V84.26a.59.59,0,0,0-.59-.59h-4.28a.59.59,0,0,0-.58.59v26.33a.59.59,0,0,0,.58.59h4.28a.59.59,0,0,0,.59-.59v-5.26a.56.56,0,0,1,.15-.39l1.51-1.65a.58.58,0,0,1,.93.1l4.47,7.5a.57.57,0,0,0,.5.29h4.81a.59.59,0,0,0,.5-.89Z"/><path class="cls-3" d="M661.13,107.43a.32.32,0,0,0-.54.35,5.81,5.81,0,0,0,1,1.14.32.32,0,0,0,.45-.46A9.66,9.66,0,0,1,661.13,107.43Z"/><path class="cls-3" d="M657.12,86a5.41,5.41,0,0,0-.92.49.45.45,0,0,0-.12.4c0,.08.13.14.24.21a.32.32,0,0,0,.3,0,5.94,5.94,0,0,0,.84-.4.54.54,0,0,0,.18-.48A.38.38,0,0,0,657.12,86Z"/><path class="cls-3" d="M650.94,85.6a7.23,7.23,0,0,1-1.24.23c-1.09.07-1,1.59.77,2.18a.33.33,0,0,0,.33-.55c-.24-.24-.39-.5-.29-.75a1.63,1.63,0,0,1,.67-.51A.32.32,0,0,0,650.94,85.6Z"/><path class="cls-3" d="M688.93,100.36a18.31,18.31,0,0,1-9.08.76,31,31,0,0,1-5.2-1c-1.53-.53-2.92-1.45-4.45-2A.45.45,0,0,1,670,98a7.91,7.91,0,0,1-.38-5.25c.32-1.06.75-2.09,1.14-3.13a8.62,8.62,0,0,0,.61-4.52,5.8,5.8,0,0,0-8.65-4.3,5.09,5.09,0,0,0-2.49,3,2.34,2.34,0,0,0,2.48,3c.1,0,.2,0,.3,0a4.65,4.65,0,0,1-.49,2.9.34.34,0,0,0,.27.53,7.06,7.06,0,0,0,4.55-1.43,1.1,1.1,0,0,1-.11.29,6.2,6.2,0,0,1-2.41,2.3,1,1,0,0,0-.32.33A18.16,18.16,0,0,1,662.2,95c-.94,1.11-1.88,2.22-2.75,3.37A6.64,6.64,0,0,0,659,99a.7.7,0,0,0,1,.91,15.06,15.06,0,0,1,2.77-1.69v.2a11.77,11.77,0,0,0,4.63,11,11.8,11.8,0,0,0,4,1.82s0,.06,0,.1a5.74,5.74,0,0,0,.21.89c.06.21,0,.32-.23.36-1.89.31-3.77.62-5.65,1a6.69,6.69,0,0,0-2.39.72,6.31,6.31,0,0,0-.57.44s0,0,0,0a8.92,8.92,0,0,1,4.87,2.29.4.4,0,0,0,.54.07c1.63-.84,3.28-1.67,4.92-2.5l2.6-1.31-.24-.1c-.61-.2-1.23-.39-1.84-.6-.09,0-.24-.11-.24-.17s0-.41,0-.6a.2.2,0,0,1,.22-.21l.4,0a15.78,15.78,0,0,0,3.77-.27.35.35,0,0,1,.41.34c0,.49,0,1,0,1.5a.41.41,0,0,1-.27.44q-2.09,1-4.15,2t-4,2a5.3,5.3,0,0,0-.65.46s0,0,0,0c1.29.17,2.29.6,2.67,1.9l.2-.1,7.86-4.7a.35.35,0,0,0,.18-.37v-3.68a.56.56,0,0,1,.37-.52l.84-.31a13.13,13.13,0,0,0,6.76-5.85l.16-.32a12.84,12.84,0,0,1-3,.82.35.35,0,0,1-.22-.65c.74-.45,1.48-.9,2.2-1.39a8.48,8.48,0,0,0,2.11-2A.35.35,0,0,0,688.93,100.36ZM663.84,84.72a1,1,0,0,1-1-1,1,1,0,0,1,1.07-1,1,1,0,0,1,1,1A1.08,1.08,0,0,1,663.84,84.72Zm16.57,23.18a9.47,9.47,0,0,1-9,1.29,6.5,6.5,0,0,1-3.83-3.48,3.63,3.63,0,0,1-.31-1.08.35.35,0,0,1,.63-.26,8.26,8.26,0,0,0,1.49,1.52,9.56,9.56,0,0,0,4.65,2,15.44,15.44,0,0,0,7-.74.6.6,0,0,1,.3,0C681,107.42,680.73,107.68,680.41,107.9Zm2.51-4.26a7.62,7.62,0,0,1-6,1.73,5.2,5.2,0,0,1-3.65-2.13,3.21,3.21,0,0,1-.39-.7.35.35,0,0,1,.51-.43c3.15,2.14,6.56,2.08,10.14,1Z"/></g></g></svg>